<svg width="80" height="69" viewBox="0 0 80 69" fill="none" xmlns="http://www.w3.org/2000/svg">
<g clip-path="url(#clip0_47_3247)">
<path d="M49.9885 43.1021L40.3295 48.5459C40.1267 48.6584 39.8779 48.6584 39.6751 48.5459L29.9424 43.0571C29.7396 42.9447 29.4908 42.9447 29.288 43.0571L26.7258 44.5013C26.288 44.7488 26.288 45.3651 26.7258 45.6126L38.0714 52.0057L39.6797 52.9145C39.8825 53.027 40.1313 53.027 40.3341 52.9145L41.9424 52.0057L53.2143 45.6531C53.6521 45.4056 53.6521 44.7893 53.2143 44.5418L50.6521 43.0976C50.4493 42.9852 50.2005 42.9852 49.9977 43.0976L49.9885 43.1021Z" fill="#3C3936"/>
<path d="M56.5002 25.5693V40.9245C56.5002 41.4194 55.9518 41.7253 55.514 41.4779L52.9518 40.0337C52.749 39.9212 52.6246 39.7098 52.6246 39.4803V27.7559C52.6246 27.5264 52.5002 27.315 52.2974 27.2025L49.1177 25.4119L47.0485 24.2466C46.8458 24.1342 46.5969 24.1342 46.3896 24.2466L45.2421 24.8945L41.9379 26.7571L40.3296 27.6659C40.1269 27.7784 39.878 27.7784 39.6753 27.6659L38.067 26.7571L34.6154 24.809L33.6154 24.2466C33.4126 24.1342 33.1637 24.1342 32.9564 24.2466L30.7398 25.4974L27.7075 27.207C27.5048 27.3195 27.3803 27.5309 27.3803 27.7604V39.4039C27.3803 39.6333 27.2559 39.8448 27.0531 39.9572L24.4909 41.4014C24.0531 41.6489 23.5048 41.3384 23.5048 40.848V25.5693C23.5048 25.3399 23.6292 25.1284 23.8319 25.016L25.4402 24.1072L28.5048 22.3795L29.408 21.8711L31.3435 20.7779L32.3757 20.193L33.279 19.6846L38.0624 16.9897L39.6707 16.0809C39.8734 15.9684 40.1223 15.9684 40.325 16.0809L41.9333 16.9897L46.7167 19.6846L47.5462 20.1525L48.6522 20.7779L50.5877 21.8711L51.4172 22.339L54.5555 24.1072L56.1637 25.016C56.3665 25.1284 56.4909 25.3399 56.4909 25.5693H56.5002Z" fill="#3C3936"/>
</g>
<defs>
<clipPath id="clip0_47_3247">
<rect width="33" height="37" fill="white" transform="translate(23.5 16)"/>
</clipPath>
</defs>
</svg>
