<svg width="20" height="20" viewBox="0 0 20 20" fill="none" xmlns="http://www.w3.org/2000/svg">
<path d="M6.69995 0.700012H1.69995C1.14767 0.700012 0.699951 1.14773 0.699951 1.70001V6.70001C0.699951 7.2523 1.14767 7.70001 1.69995 7.70001H6.69995C7.25224 7.70001 7.69995 7.2523 7.69995 6.70001V1.70001C7.69995 1.14773 7.25224 0.700012 6.69995 0.700012Z" stroke="currentColor" stroke-width="1.4" stroke-linecap="round" stroke-linejoin="round"/>
<path d="M17.7 0.700012H12.7C12.1477 0.700012 11.7 1.14773 11.7 1.70001V6.70001C11.7 7.2523 12.1477 7.70001 12.7 7.70001H17.7C18.2522 7.70001 18.7 7.2523 18.7 6.70001V1.70001C18.7 1.14773 18.2522 0.700012 17.7 0.700012Z" stroke="currentColor" stroke-width="1.4" stroke-linecap="round" stroke-linejoin="round"/>
<path d="M17.7 11.7H12.7C12.1477 11.7 11.7 12.1477 11.7 12.7V17.7C11.7 18.2523 12.1477 18.7 12.7 18.7H17.7C18.2522 18.7 18.7 18.2523 18.7 17.7V12.7C18.7 12.1477 18.2522 11.7 17.7 11.7Z" stroke="currentColor" stroke-width="1.4" stroke-linecap="round" stroke-linejoin="round"/>
<path d="M6.69995 11.7H1.69995C1.14767 11.7 0.699951 12.1477 0.699951 12.7V17.7C0.699951 18.2523 1.14767 18.7 1.69995 18.7H6.69995C7.25224 18.7 7.69995 18.2523 7.69995 17.7V12.7C7.69995 12.1477 7.25224 11.7 6.69995 11.7Z" stroke="currentColor" stroke-width="1.4" stroke-linecap="round" stroke-linejoin="round"/>
</svg>
