<svg width="72" height="63" viewBox="0 0 72 63" fill="none" xmlns="http://www.w3.org/2000/svg">
<path d="M12 15.5C12 11.0817 15.5817 7.5 20 7.5H52C56.4183 7.5 60 11.0817 60 15.5V47.5C60 51.9183 56.4183 55.5 52 55.5H20C15.5817 55.5 12 51.9183 12 47.5V15.5Z" fill="white"/>
<path d="M34.2679 40.5C34.4435 40.804 34.696 41.0565 35 41.232C35.304 41.4075 35.6489 41.4999 35.9999 41.4999C36.351 41.4999 36.6959 41.4075 36.9999 41.232C37.3039 41.0565 37.5564 40.804 37.7319 40.5" stroke="currentColor" stroke-width="2" stroke-linecap="round" stroke-linejoin="round"/>
<path d="M27.262 34.826C27.1314 34.9692 27.0452 35.1472 27.0139 35.3385C26.9826 35.5298 27.0075 35.726 27.0857 35.9034C27.1639 36.0807 27.2919 36.2316 27.4543 36.3375C27.6166 36.4434 27.8062 36.4999 28 36.5H44C44.1938 36.5001 44.3834 36.4438 44.5459 36.3381C44.7083 36.2324 44.8365 36.0817 44.9149 35.9045C44.9933 35.7273 45.0185 35.5311 44.9874 35.3398C44.9564 35.1485 44.8704 34.9703 44.74 34.827C43.41 33.456 42 31.999 42 27.5C42 25.9087 41.3679 24.3826 40.2426 23.2574C39.1174 22.1321 37.5913 21.5 36 21.5C34.4087 21.5 32.8826 22.1321 31.7574 23.2574C30.6321 24.3826 30 25.9087 30 27.5C30 31.999 28.589 33.456 27.262 34.826Z" stroke="currentColor" stroke-width="2" stroke-linecap="round" stroke-linejoin="round"/>
</svg>
